HIERARCHY
ROOT Hips
{
 OFFSET 0.000000 0.000000 0.000000
 CHANNELS 6 Xposition Yposition Zposition Yrotation Xrotation Zrotation
 JOINT Chest
 {
  OFFSET 0.000000 9.585900 0.002600
  CHANNELS 3 Yrotation Xrotation Zrotation
  JOINT Chest2
  {
   OFFSET 0.000000 9.601200 -0.005300
   CHANNELS 3 Yrotation Xrotation Zrotation
   JOINT Chest3
   {
    OFFSET 0.000000 9.561800 0.000000
    CHANNELS 3 Yrotation Xrotation Zrotation
    JOINT Chest4
    {
     OFFSET 0.000000 9.552100 0.000000
     CHANNELS 3 Yrotation Xrotation Zrotation
     JOINT Neck
     {
      OFFSET 0.000000 14.453000 0.000000
      CHANNELS 3 Yrotation Xrotation Zrotation
      JOINT Head
      {
       OFFSET 0.000000 8.936500 -0.011300
       CHANNELS 3 Yrotation Xrotation Zrotation
       End Site
       {
        OFFSET 0.000000 17.073600 -0.006000
       }
      }
     }
     JOINT RightCollar
     {
      OFFSET -2.921100 9.558500 0.000000
      CHANNELS 3 Yrotation Xrotation Zrotation
      JOINT RightShoulder
      {
       OFFSET -13.519700 0.000000 0.000000
       CHANNELS 3 Yrotation Xrotation Zrotation
       JOINT RightElbow
       {
        OFFSET 0.000000 -29.696600 0.000000
        CHANNELS 3 Yrotation Xrotation Zrotation
        JOINT RightWrist
        {
         OFFSET 0.000000 -24.004700 0.000000
         CHANNELS 3 Yrotation Xrotation Zrotation
         End Site
         {
          OFFSET 0.000000 -17.728500 0.000000
         }
        }
       }
      }
     }
     JOINT LeftCollar
     {
      OFFSET 2.921100 9.558500 0.000000
      CHANNELS 3 Yrotation Xrotation Zrotation
      JOINT LeftShoulder
      {
       OFFSET 13.519700 0.000000 0.000000
       CHANNELS 3 Yrotation Xrotation Zrotation
       JOINT LeftElbow
       {
        OFFSET 0.000000 -29.696600 0.000000
        CHANNELS 3 Yrotation Xrotation Zrotation
        JOINT LeftWrist
        {
         OFFSET 0.000000 -24.004700 0.000000
         CHANNELS 3 Yrotation Xrotation Zrotation
         End Site
         {
          OFFSET 0.000000 -17.728500 0.000000
         }
        }
       }
      }
     }
    }
   }
  }
 }
 JOINT RightHip
 {
  OFFSET -7.771700 -0.012900 -0.001300
  CHANNELS 3 Yrotation Xrotation Zrotation
  JOINT RightKnee
  {
   OFFSET 0.000000 -40.869800 0.001200
   CHANNELS 3 Yrotation Xrotation Zrotation
   JOINT RightAnkle
   {
    OFFSET 0.000000 -39.717900 0.002100
    CHANNELS 3 Yrotation Xrotation Zrotation
    JOINT RightToe
    {
     OFFSET 0.000000 -4.965400 11.033500
     CHANNELS 3 Yrotation Xrotation Zrotation
     End Site
     {
      OFFSET 0.000000 -1.423100 5.872300
     }
    }
   }
  }
 }
 JOINT LeftHip
 {
  OFFSET 7.771700 -0.012900 -0.001300
  CHANNELS 3 Yrotation Xrotation Zrotation
  JOINT LeftKnee
  {
   OFFSET 0.000000 -40.869800 0.001200
   CHANNELS 3 Yrotation Xrotation Zrotation
   JOINT LeftAnkle
   {
    OFFSET 0.000000 -39.717900 0.002100
    CHANNELS 3 Yrotation Xrotation Zrotation
    JOINT LeftToe
    {
     OFFSET 0.000000 -4.965400 11.033500
     CHANNELS 3 Yrotation Xrotation Zrotation
     End Site
     {
      OFFSET 0.000000 -1.423100 5.872300
     }
    }
   }
  }
 }
}
MOTION
Frames: 11
Frame Time: 0.008333
-15.658699 58.608272 47.315938 -179.915922 -28.213185 -4.598777 3.735657 22.030814 3.909044 0.426188 3.131011 0.343841 0.701056 5.073668 0.569784 2.919302 18.736176 2.493049 -4.993558 14.902592 -3.034622 -8.212949 -8.146427 -3.813433 0.382260 -1.939332 0.780639 -3.283367 -22.926214 -4.610623 119.731085 -48.918647 -129.054163 19.995570 -17.005502 -49.826081 -6.376456 -1.566687 -0.501189 31.302867 -15.620733 -3.923626 -138.471253 -32.338888 147.124095 -9.224033 -13.396827 32.471726 6.373096 -42.221821 -2.335592 -3.496218 67.988990 -6.228038 6.631043 6.984056 10.133114 -0.205426 0.328166 -0.085161 -7.871018 -49.151965 2.679801 28.433030 65.061636 26.892510 -10.838621 31.421930 4.353294 0.343860 -18.862197 -5.040448
-15.658868 58.608636 47.314280 -179.911562 -28.209133 -4.599427 3.744458 22.023053 3.913052 0.426516 3.128942 0.343851 0.701718 5.070562 0.569861 2.915962 18.733337 2.494917 -4.985760 14.899932 -3.034523 -8.198240 -8.151694 -3.815958 0.387396 -1.941633 0.770291 -3.280439 -22.933761 -4.624981 119.738983 -48.923778 -129.053584 19.997349 -16.986815 -49.832409 -6.371042 -1.582044 -0.495164 31.292374 -15.601624 -3.914745 -138.484824 -32.330421 147.138433 -9.227007 -13.403379 32.490982 6.350023 -42.223775 -2.309351 -3.510293 67.989766 -6.267305 6.607053 6.979836 10.136916 -0.205383 0.335528 -0.086043 -7.872115 -49.153828 2.677916 28.439501 65.056596 26.895379 -10.839427 31.425631 4.365585 0.345225 -18.861398 -5.048412
-15.658044 58.609482 47.311979 -179.910655 -28.209026 -4.602302 3.756907 22.017363 3.920163 0.426920 3.126902 0.343784 0.702460 5.067403 0.569785 2.925718 18.729522 2.498117 -4.981169 14.898088 -3.032761 -8.190376 -8.154962 -3.814245 0.383980 -1.942803 0.763866 -3.279419 -22.940237 -4.641566 119.735706 -48.934645 -129.050208 19.999942 -16.977377 -49.839100 -6.384270 -1.582881 -0.485152 31.296933 -15.596593 -3.912338 -138.504622 -32.325593 147.150986 -9.226663 -13.412253 32.502309 6.324177 -42.222648 -2.278609 -3.512816 67.990261 -6.298320 6.608225 6.975695 10.140178 -0.206611 0.338466 -0.082337 -7.875383 -49.153065 2.682281 28.472851 65.052256 26.920418 -10.833492 31.424690 4.386947 0.330643 -18.862575 -5.053957
-15.658427 58.610331 47.309582 -179.902330 -28.208399 -4.600092 3.752650 22.014845 3.915424 0.433024 3.123259 0.343182 0.703142 5.064187 0.569697 2.942468 18.708567 2.496075 -4.965897 14.894098 -3.026756 -8.195618 -8.138969 -3.806408 0.374840 -1.928721 0.765728 -3.263348 -22.964767 -4.677091 119.687283 -48.977535 -129.022012 20.009005 -17.001882 -49.845648 -6.405706 -1.564065 -0.467426 31.304849 -15.607228 -3.906355 -138.521610 -32.333505 147.156986 -9.224572 -13.415028 32.516013 6.300437 -42.221280 -2.261158 -3.511888 67.994995 -6.325566 6.607363 6.966059 10.146301 -0.208495 0.343348 -0.081658 -7.881150 -49.152157 2.677059 28.485960 65.049396 26.925901 -10.833298 31.424585 4.400865 0.329071 -18.862760 -5.062693
-15.658168 58.611118 47.307545 -179.889986 -28.205491 -4.603064 3.746626 22.010529 3.914078 0.439292 3.120270 0.342619 0.700447 5.062961 0.570223 2.949888 18.701123 2.497350 -4.970148 14.899284 -3.022792 -8.145158 -8.173642 -3.807350 0.376500 -1.930805 0.760155 -3.257355 -22.975999 -4.693870 119.680357 -48.985293 -129.008305 20.021710 -17.022900 -49.856634 -6.416235 -1.560771 -0.456209 31.308195 -15.606580 -3.903243 -138.532648 -32.325352 147.164697 -9.221627 -13.416868 32.521772 6.277700 -42.222150 -2.246687 -3.521566 67.999195 -6.354524 6.612516 6.958810 10.151109 -0.201866 0.345383 -0.081738 -7.904363 -49.153529 2.684525 28.499454 65.049371 26.927953 -10.830678 31.421060 4.408754 0.327041 -18.860204 -5.067394
-15.658347 58.611680 47.305962 -179.889364 -28.201134 -4.598006 3.763997 22.000007 3.914238 0.431503 3.120173 0.343752 0.692067 5.066249 0.570928 2.962206 18.690256 2.498618 -4.974030 14.903907 -3.020640 -8.135612 -8.177900 -3.804812 0.374529 -1.929521 0.755874 -3.247119 -22.988082 -4.710276 119.700221 -48.959203 -129.017896 20.009505 -16.978663 -49.849983 -6.425109 -1.557805 -0.449183 31.312214 -15.609468 -3.898918 -138.540249 -32.328005 147.163223 -9.245679 -13.454204 32.541040 6.277637 -42.225436 -2.244873 -3.539574 68.001113 -6.382581 6.623822 6.954423 10.156136 -0.212007 0.346733 -0.081586 -7.928503 -49.150405 2.701896 28.506912 65.045516 26.912631 -10.829684 31.405043 4.407921 0.338500 -18.844945 -5.068411
-15.658448 58.612726 47.303663 -179.880138 -28.202547 -4.598181 3.767254 21.996322 3.914494 0.428640 3.119358 0.344296 0.696576 5.064528 0.569935 2.962060 18.685023 2.501929 -4.949904 14.889578 -3.017790 -8.163754 -8.152174 -3.799410 0.366229 -1.920944 0.756988 -3.223993 -23.007705 -4.733497 119.699925 -48.951383 -129.018464 20.002543 -16.981840 -49.843791 -6.430103 -1.553901 -0.444420 31.316151 -15.614534 -3.893875 -138.550762 -32.329917 147.160285 -9.256545 -13.459586 32.547623 6.262196 -42.221767 -2.228119 -3.566354 68.003777 -6.432851 6.628780 6.948964 10.165732 -0.207483 0.347628 -0.081409 -7.937359 -49.142543 2.699278 28.525598 65.039656 26.922730 -10.826327 31.381066 4.415025 0.330063 -18.825689 -5.067999
-15.658719 58.613380 47.302240 -179.881826 -28.200665 -4.593108 3.772933 21.990934 3.912074 0.431119 3.116665 0.344187 0.706115 5.053239 0.570527 2.957623 18.689090 2.503481 -4.943564 14.887486 -3.013735 -8.154907 -8.153727 -3.795113 0.368104 -1.923136 0.754153 -3.215487 -23.014357 -4.749267 119.676120 -48.961456 -129.005582 20.002794 -17.035866 -49.853180 -6.438615 -1.545236 -0.439555 31.323596 -15.622294 -3.888702 -138.541845 -32.291855 147.157521 -9.218437 -13.431094 32.535062 6.259672 -42.222215 -2.214615 -3.595918 68.003774 -6.479612 6.622250 6.944580 10.168263 -0.199602 0.354072 -0.080148 -7.932465 -49.141499 2.695079 28.536683 65.039693 26.919288 -10.795267 31.363795 4.456294 0.308355 -18.814052 -5.080434
-15.659684 58.613461 47.301964 -179.878447 -28.192721 -4.587160 3.768167 21.982606 3.904023 0.433389 3.114782 0.344104 0.706593 5.051920 0.570533 2.965446 18.681342 2.504158 -4.936839 14.884789 -3.009326 -8.116351 -8.179367 -3.786607 0.364625 -1.924926 0.751380 -3.201949 -23.020431 -4.763666 119.651938 -48.969242 -128.992327 19.996964 -17.037480 -49.853281 -6.446794 -1.538325 -0.434234 31.328366 -15.627583 -3.882426 -138.537845 -32.281001 147.149850 -9.230132 -13.434588 32.547954 6.262980 -42.229924 -2.218493 -3.602025 68.007425 -6.493064 6.618449 6.941458 10.170461 -0.198485 0.355205 -0.079281 -7.927513 -49.146832 2.683552 28.530210 65.037400 26.906723 -10.773356 31.354079 4.478372 0.295043 -18.804013 -5.086309
-15.661319 58.613953 47.301016 -179.872005 -28.191446 -4.579246 3.766119 21.977896 3.894994 0.429737 3.116093 0.344354 0.706976 5.050636 0.570673 2.966577 18.679949 2.505131 -4.925350 14.877004 -3.006188 -8.103818 -8.185688 -3.781045 0.383906 -1.936842 0.744764 -3.205580 -23.021918 -4.776047 119.648441 -48.967867 -128.988808 19.990672 -17.022635 -49.852781 -6.444956 -1.540157 -0.426834 31.326355 -15.625340 -3.879524 -138.533141 -32.271860 147.145100 -9.251721 -13.441391 32.568198 6.267136 -42.230268 -2.228642 -3.595402 68.013952 -6.492595 6.612318 6.932708 10.173303 -0.198876 0.359160 -0.081081 -7.908644 -49.144946 2.656617 28.517455 65.032703 26.897229 -10.763189 31.344593 4.491466 0.289366 -18.792678 -5.090827
-15.661792 58.614331 47.300700 -179.873269 -28.189302 -4.574821 3.772973 21.974526 3.892509 0.437674 3.110938 0.344020 0.707131 5.045788 0.571144 2.957369 18.685773 2.509219 -4.914535 14.867996 -3.003021 -8.103425 -8.181582 -3.778701 0.384221 -1.934722 0.744389 -3.190322 -23.038363 -4.790443 119.643355 -48.973906 -128.984581 19.990952 -17.024966 -49.857427 -6.437675 -1.546161 -0.419391 31.316162 -15.614782 -3.878373 -138.527600 -32.261057 147.145604 -9.268781 -13.443775 32.590236 6.273030 -42.234066 -2.225079 -3.611146 68.017430 -6.516261 6.608711 6.935070 10.173297 -0.190892 0.357029 -0.078839 -7.889368 -49.144336 2.637478 28.516008 65.025925 26.902946 -10.756733 31.336766 4.501805 0.282465 -18.783898 -5.095013
